<?xml version="1.0" encoding="UTF-8" standalone="no"?><!-- Generator: Gravit.io --><svg xmlns="http://www.w3.org/2000/svg" xmlns:xlink="http://www.w3.org/1999/xlink" style="isolation:isolate" viewBox="0 0 20 40" width="20pt" height="40pt"><defs><clipPath id="_clipPath_nItFvOwjw7O3K0CCeD6YhFG4x6A94xo8"><rect width="20" height="40"/></clipPath></defs><g clip-path="url(#_clipPath_nItFvOwjw7O3K0CCeD6YhFG4x6A94xo8)"><clipPath id="_clipPath_f1HlUfkNT2HmDUUgwh42gOrrkyvZcnVl"><rect x="0" y="0" width="40" height="40" transform="matrix(1,0,0,1,0,0)" fill="rgb(255,255,255)"/></clipPath><g clip-path="url(#_clipPath_f1HlUfkNT2HmDUUgwh42gOrrkyvZcnVl)"><g><linearGradient id="_lgradient_0" x1="0.5" y1="0.0018749999999998958" x2="0.49999999999999983" y2="1.0018749999999998" gradientTransform="matrix(40,0,0,40,0,0)" gradientUnits="userSpaceOnUse"><stop offset="0%" stop-opacity="0.25" style="stop-color:rgb(187,156,255)"/><stop offset="98.26086956521739%" stop-opacity="0.25" style="stop-color:rgb(139,164,249)"/></linearGradient><path d=" M 0 0 L 40 0 C 28.962 0 20 8.962 20 20 C 20 31.038 28.962 40 40 40 L 40 40 L 0 40 C 11.038 40 20 31.038 20 20 C 20 8.962 11.038 0 0 0 Z " fill-rule="evenodd" fill="url(#_lgradient_0)"/></g></g><rect x="20" y="0" width="20" height="40" transform="matrix(1,0,0,1,0,0)" fill="rgb(235,235,235)"/></g></svg>