<?xml version="1.0" encoding="UTF-8" standalone="no"?><!-- Generator: Gravit.io --><svg xmlns="http://www.w3.org/2000/svg" xmlns:xlink="http://www.w3.org/1999/xlink" style="isolation:isolate" viewBox="0 0 20 40" width="20pt" height="40pt"><defs><clipPath id="_clipPath_Rm3UmCjoNZ0HEbhM8rBFMo5EZ4kiwd6g"><rect width="20" height="40"/></clipPath></defs><g clip-path="url(#_clipPath_Rm3UmCjoNZ0HEbhM8rBFMo5EZ4kiwd6g)"><clipPath id="_clipPath_SKeQWdICMa5Ubt9mKpYYAcdFQeoHzB38"><rect x="0" y="0" width="20" height="40" transform="matrix(1,0,0,1,0,0)" fill="rgb(255,255,255)"/></clipPath><g clip-path="url(#_clipPath_SKeQWdICMa5Ubt9mKpYYAcdFQeoHzB38)"><g><clipPath id="_clipPath_rZ2hjL9axMnyNlejl5jqG7EtJdvOBbcO"><rect x="0" y="0" width="40" height="40" transform="matrix(1,0,0,1,0,0)" fill="rgb(255,255,255)"/></clipPath><g clip-path="url(#_clipPath_rZ2hjL9axMnyNlejl5jqG7EtJdvOBbcO)"><g><g><path d=" M 0 0 L 40 0 C 28.962 0 20 8.962 20 20 C 20 31.038 28.962 40 40 40 L 40 40 L 0 40 C 11.038 40 20 31.038 20 20 C 20 8.962 11.038 0 0 0 Z " fill-rule="evenodd" fill="rgb(255,255,255)"/></g></g></g><rect x="20" y="0" width="20" height="40" transform="matrix(1,0,0,1,0,0)" fill="rgb(235,235,235)"/></g></g></g></svg>